<?xml version="1.0" encoding="UTF-8" standalone="no"?>
<svg
   viewBox="0 0 134 134"
   width="134"
   height="134"
   version="1.1"
   id="svg1"
   sodipodi:docname="icon.svg"
   inkscape:export-filename="icon.png"
   inkscape:export-xdpi="96"
   inkscape:export-ydpi="96"
   inkscape:version="1.3.2 (091e20e, 2023-11-25, custom)"
   xmlns:inkscape="http://www.inkscape.org/namespaces/inkscape"
   xmlns:sodipodi="http://sodipodi.sourceforge.net/DTD/sodipodi-0.dtd"
   xmlns="http://www.w3.org/2000/svg"
   xmlns:svg="http://www.w3.org/2000/svg">
  <defs
     id="defs1" />
  <sodipodi:namedview
     id="namedview1"
     pagecolor="#ffffff"
     bordercolor="#000000"
     borderopacity="0.25"
     inkscape:showpageshadow="2"
     inkscape:pageopacity="0.0"
     inkscape:pagecheckerboard="0"
     inkscape:deskcolor="#d1d1d1"
     inkscape:zoom="5.5149254"
     inkscape:cx="67.090663"
     inkscape:cy="67"
     inkscape:window-width="1920"
     inkscape:window-height="974"
     inkscape:window-x="-11"
     inkscape:window-y="-11"
     inkscape:window-maximized="1"
     inkscape:current-layer="svg1" />
  <style
     id="style1">
    .icon-fill {
        fill: #ef6a36;
    }
    </style>
  <path
     d="M 87 47 L 86 48 L 85 48 L 84 49 L 84 50 L 83 51 L 83 59 L 84 60 L 84 62 L 85 63 L 85 64 L 86 65 L 87 65 L 89 67 L 91 67 L 92 66 L 93 66 L 94 65 L 94 64 L 95 63 L 95 56 L 94 55 L 94 52 L 92 50 L 92 49 L 91 48 L 89 48 L 88 47 Z M 114 40 L 111 43 L 111 52 L 112 53 L 112 54 L 113 55 L 113 56 L 116 59 L 120 59 L 122 57 L 122 55 L 123 54 L 123 48 L 122 47 L 122 45 L 121 44 L 121 43 L 118 40 Z M 9 0 L 7 2 L 6 2 L 5 3 L 5 4 L 4 5 L 4 12 L 5 13 L 5 14 L 6 15 L 7 15 L 9 17 L 14 17 L 15 18 L 15 19 L 16 20 L 16 22 L 17 23 L 17 24 L 18 25 L 18 27 L 19 28 L 19 29 L 20 30 L 20 32 L 21 33 L 21 34 L 22 35 L 20 37 L 20 38 L 19 39 L 19 40 L 18 41 L 18 42 L 17 43 L 17 44 L 16 45 L 16 47 L 15 48 L 15 49 L 14 50 L 14 53 L 13 54 L 13 56 L 12 57 L 12 58 L 10 60 L 9 60 L 7 62 L 7 63 L 5 65 L 5 66 L 3 68 L 3 70 L 2 71 L 2 73 L 1 74 L 1 85 L 2 86 L 2 89 L 3 90 L 3 91 L 4 92 L 4 93 L 6 95 L 6 96 L 10 100 L 11 100 L 13 102 L 14 102 L 15 103 L 16 103 L 17 104 L 20 104 L 24 108 L 24 109 L 30 115 L 30 116 L 31 116 L 36 121 L 37 121 L 38 122 L 39 122 L 41 124 L 42 124 L 43 125 L 44 125 L 46 127 L 48 127 L 49 128 L 51 128 L 52 129 L 53 129 L 54 130 L 57 130 L 58 131 L 63 131 L 64 132 L 80 132 L 81 131 L 85 131 L 86 130 L 89 130 L 90 129 L 92 129 L 93 128 L 94 128 L 95 127 L 97 127 L 98 126 L 99 126 L 101 124 L 102 124 L 103 123 L 104 123 L 106 121 L 107 121 L 112 116 L 113 116 L 116 113 L 116 112 L 119 109 L 119 108 L 120 107 L 121 107 L 121 106 L 122 105 L 122 104 L 124 102 L 124 101 L 125 100 L 125 99 L 126 98 L 126 97 L 127 96 L 127 94 L 128 93 L 128 92 L 129 91 L 129 88 L 130 87 L 130 85 L 131 84 L 131 79 L 132 78 L 132 76 L 130 78 L 130 79 L 119 90 L 118 90 L 116 92 L 115 92 L 114 93 L 113 93 L 111 95 L 109 95 L 108 96 L 106 96 L 105 97 L 104 97 L 103 98 L 100 98 L 99 99 L 96 99 L 95 100 L 87 100 L 86 101 L 83 101 L 82 100 L 81 101 L 80 101 L 77 104 L 76 104 L 75 105 L 74 105 L 73 106 L 72 106 L 71 107 L 61 107 L 60 106 L 60 105 L 62 103 L 62 102 L 63 101 L 63 100 L 64 99 L 64 91 L 52 79 L 52 78 L 50 76 L 50 75 L 49 74 L 49 73 L 48 72 L 48 70 L 47 69 L 47 67 L 46 66 L 46 52 L 47 51 L 47 49 L 48 48 L 48 46 L 49 45 L 49 44 L 50 43 L 50 42 L 52 40 L 52 39 L 63 28 L 64 28 L 66 26 L 67 26 L 68 25 L 69 25 L 70 24 L 71 24 L 72 23 L 74 23 L 75 22 L 76 22 L 77 21 L 80 21 L 81 20 L 85 20 L 86 19 L 92 19 L 93 18 L 98 18 L 99 17 L 99 15 L 98 15 L 97 14 L 96 14 L 95 13 L 94 13 L 93 12 L 91 12 L 90 11 L 88 11 L 87 10 L 83 10 L 82 9 L 73 9 L 72 8 L 71 9 L 61 9 L 60 10 L 56 10 L 55 11 L 53 11 L 52 12 L 50 12 L 49 13 L 48 13 L 47 14 L 46 14 L 45 15 L 44 15 L 43 16 L 42 16 L 41 17 L 40 17 L 38 19 L 37 19 L 36 20 L 35 20 L 34 19 L 33 19 L 32 18 L 31 18 L 30 17 L 29 17 L 27 15 L 26 15 L 25 14 L 24 14 L 22 12 L 21 12 L 20 11 L 21 10 L 21 8 L 20 7 L 20 4 L 17 1 L 16 1 L 15 0 Z"
     class="icon-fill"
     fill-rule="evenodd"
     id="path1" />
</svg>
