<?xml version="1.0" ?>
<svg xmlns="http://www.w3.org/2000/svg" viewBox="0 0 134 134" width="134" height="134">
  <style>
    .icon-fill {
        fill: #ffffff;
    }
    </style>
  <path d="M 86 47 L 85 48 L 84 48 L 84 49 L 83 50 L 83 59 L 84 60 L 84 62 L 85 63 L 85 64 L 86 64 L 88 66 L 91 66 L 92 65 L 93 65 L 93 64 L 94 63 L 94 55 L 93 54 L 93 51 L 91 49 L 91 48 L 89 48 L 88 47 Z M 113 40 L 111 42 L 111 52 L 112 53 L 112 54 L 113 55 L 113 56 L 115 58 L 120 58 L 121 57 L 121 55 L 122 54 L 122 47 L 121 46 L 121 44 L 120 43 L 120 42 L 118 40 Z M 8 0 L 6 2 L 5 2 L 5 3 L 4 4 L 4 12 L 5 13 L 5 14 L 6 14 L 8 16 L 13 16 L 15 18 L 15 19 L 16 20 L 16 22 L 17 23 L 17 24 L 18 25 L 18 27 L 19 28 L 19 29 L 20 30 L 20 32 L 21 33 L 21 35 L 20 36 L 20 37 L 19 38 L 19 39 L 18 40 L 18 41 L 17 42 L 17 43 L 16 44 L 16 46 L 15 47 L 15 48 L 14 49 L 14 52 L 13 53 L 13 55 L 12 56 L 12 57 L 9 60 L 8 60 L 7 61 L 7 62 L 5 64 L 5 65 L 3 67 L 3 69 L 2 70 L 2 72 L 1 73 L 1 85 L 2 86 L 2 89 L 3 90 L 3 91 L 4 92 L 4 93 L 6 95 L 6 96 L 9 99 L 10 99 L 12 101 L 13 101 L 14 102 L 15 102 L 16 103 L 19 103 L 24 108 L 24 109 L 35 120 L 36 120 L 37 121 L 38 121 L 40 123 L 41 123 L 42 124 L 43 124 L 45 126 L 47 126 L 48 127 L 50 127 L 51 128 L 52 128 L 53 129 L 56 129 L 57 130 L 62 130 L 63 131 L 80 131 L 81 130 L 85 130 L 86 129 L 89 129 L 90 128 L 92 128 L 93 127 L 94 127 L 95 126 L 97 126 L 98 125 L 99 125 L 101 123 L 102 123 L 103 122 L 104 122 L 106 120 L 107 120 L 112 115 L 113 115 L 115 113 L 115 112 L 118 109 L 118 108 L 121 105 L 121 104 L 123 102 L 123 101 L 124 100 L 124 99 L 125 98 L 125 97 L 126 96 L 126 94 L 127 93 L 127 92 L 128 91 L 128 88 L 129 87 L 129 85 L 130 84 L 130 79 L 131 78 L 131 76 L 130 77 L 130 78 L 118 90 L 117 90 L 115 92 L 114 92 L 113 93 L 112 93 L 110 95 L 108 95 L 107 96 L 105 96 L 104 97 L 103 97 L 102 98 L 99 98 L 98 99 L 95 99 L 94 100 L 86 100 L 85 101 L 83 101 L 82 100 L 81 100 L 80 101 L 79 101 L 76 104 L 75 104 L 74 105 L 73 105 L 72 106 L 71 106 L 70 107 L 61 107 L 59 105 L 61 103 L 61 102 L 62 101 L 62 100 L 63 99 L 63 90 L 51 78 L 51 77 L 49 75 L 49 74 L 48 73 L 48 72 L 47 71 L 47 69 L 46 68 L 46 66 L 45 65 L 45 52 L 46 51 L 46 49 L 47 48 L 47 46 L 48 45 L 48 44 L 49 43 L 49 42 L 51 40 L 51 39 L 63 27 L 64 27 L 66 25 L 67 25 L 68 24 L 69 24 L 70 23 L 71 23 L 72 22 L 74 22 L 75 21 L 76 21 L 77 20 L 80 20 L 81 19 L 85 19 L 86 18 L 92 18 L 93 17 L 98 17 L 98 15 L 97 14 L 96 14 L 95 13 L 94 13 L 93 12 L 91 12 L 90 11 L 88 11 L 87 10 L 83 10 L 82 9 L 73 9 L 72 8 L 71 8 L 70 9 L 60 9 L 59 10 L 55 10 L 54 11 L 52 11 L 51 12 L 49 12 L 48 13 L 47 13 L 46 14 L 45 14 L 44 15 L 43 15 L 42 16 L 41 16 L 40 17 L 39 17 L 37 19 L 36 19 L 35 20 L 34 19 L 33 19 L 32 18 L 31 18 L 30 17 L 29 17 L 27 15 L 26 15 L 25 14 L 24 14 L 22 12 L 21 12 L 20 11 L 20 7 L 19 6 L 19 3 L 17 1 L 16 1 L 15 0 Z" class="icon-fill" fill-rule="evenodd"/>
</svg>
